<svg width="703" height="190" viewBox="0 0 703 190" fill="none" xmlns="http://www.w3.org/2000/svg">
<path fill-rule="evenodd" clip-rule="evenodd" d="M38.8494 129.402L38.313 122.951L34.2379 117.922C25.9501 107.693 21 94.7032 21 80.5C21 47.6391 47.6391 21 80.5 21H622.5C655.361 21 682 47.6391 682 80.5C682 113.361 655.361 140 622.5 140H80.5C79.4806 140 78.4686 139.975 77.4646 139.924L71.6272 139.633L66.4785 142.399L41.0656 156.053L38.8494 129.402ZM22.7919 189.71L42.9632 178.873L76.4176 160.898C77.7699 160.966 79.131 161 80.5 161H622.5C666.959 161 703 124.959 703 80.5C703 36.0411 666.959 0 622.5 0H80.5C36.0411 0 0 36.0411 0 80.5C0 99.6893 6.71423 117.31 17.9216 131.142L20.8943 166.891L22.7919 189.71ZM90.6591 66.5227C91.8561 67.447 92.5303 68.7424 92.6818 70.4091H103.455C103.424 67.5152 102.674 64.9697 101.205 62.7727C99.7348 60.5758 97.6667 58.8712 95 57.6591C92.3485 56.4318 89.2197 55.8182 85.6136 55.8182C82.0833 55.8182 78.9394 56.4242 76.1818 57.6364C73.4242 58.8485 71.2652 60.5379 69.7045 62.7045C68.1439 64.8712 67.3712 67.3939 67.3864 70.2727C67.3712 73.803 68.5227 76.6061 70.8409 78.6818C73.1591 80.7424 76.3333 82.2348 80.3636 83.1591L85.2273 84.2955C86.9242 84.6894 88.3182 85.1212 89.4091 85.5909C90.5152 86.0455 91.3333 86.5909 91.8636 87.2273C92.3939 87.8485 92.6667 88.5985 92.6818 89.4773C92.6667 90.4167 92.3712 91.25 91.7955 91.9773C91.2197 92.7045 90.3939 93.2727 89.3182 93.6818C88.2576 94.0909 86.9697 94.2955 85.4545 94.2955C83.803 94.2955 82.3485 94.0379 81.0909 93.5227C79.8485 93.0076 78.8712 92.25 78.1591 91.25C77.447 90.25 77.0455 89 76.9545 87.5H66.1818C66.2273 91.1364 67.053 94.1439 68.6591 96.5227C70.2652 98.9015 72.5152 100.674 75.4091 101.841C78.303 103.008 81.697 103.591 85.5909 103.591C89.4697 103.591 92.7803 103.03 95.5227 101.909C98.2803 100.788 100.394 99.1742 101.864 97.0682C103.333 94.9621 104.076 92.4394 104.091 89.5C104.076 87.6364 103.758 85.9545 103.136 84.4545C102.515 82.9545 101.598 81.6288 100.386 80.4773C99.1894 79.3258 97.7045 78.3333 95.9318 77.5C94.1742 76.6667 92.1439 76 89.8409 75.5L85.8409 74.5909C84.7803 74.3636 83.8258 74.0985 82.9773 73.7955C82.1288 73.4924 81.4015 73.1439 80.7955 72.75C80.2045 72.3409 79.75 71.8712 79.4318 71.3409C79.1288 70.8106 78.9924 70.197 79.0227 69.5C79.0379 68.6515 79.2879 67.9015 79.7727 67.25C80.2576 66.5833 80.9848 66.0606 81.9545 65.6818C82.9242 65.303 84.1364 65.1136 85.5909 65.1136C87.7879 65.1136 89.4773 65.5833 90.6591 66.5227ZM116.591 101.386C119.227 102.902 122.386 103.659 126.068 103.659C129.341 103.659 132.167 103.068 134.545 101.886C136.939 100.689 138.795 99.0152 140.114 96.8636C141.447 94.7121 142.167 92.197 142.273 89.3182H131.886C131.75 90.5455 131.424 91.5909 130.909 92.4545C130.394 93.303 129.735 93.947 128.932 94.3864C128.144 94.8258 127.235 95.0455 126.205 95.0455C124.917 95.0455 123.788 94.6894 122.818 93.9773C121.848 93.25 121.091 92.1818 120.545 90.7727C120.015 89.3485 119.75 87.6061 119.75 85.5455C119.75 83.4848 120.015 81.7576 120.545 80.3636C121.091 78.9545 121.848 77.8939 122.818 77.1818C123.788 76.4545 124.917 76.0909 126.205 76.0909C127.795 76.0909 129.083 76.5985 130.068 77.6136C131.068 78.6288 131.674 80.0303 131.886 81.8182H142.273C142.197 78.9545 141.477 76.4621 140.114 74.3409C138.765 72.2045 136.886 70.553 134.477 69.3864C132.083 68.2197 129.273 67.6364 126.045 67.6364C122.394 67.6364 119.25 68.3939 116.614 69.9091C113.992 71.4242 111.97 73.5379 110.545 76.25C109.136 78.947 108.432 82.0833 108.432 85.6591C108.432 89.2197 109.136 92.3561 110.545 95.0682C111.955 97.7652 113.97 99.8712 116.591 101.386ZM159.074 103V83.0909C159.089 81.7576 159.339 80.6212 159.824 79.6818C160.324 78.7424 161.013 78.0227 161.892 77.5227C162.786 77.0076 163.816 76.75 164.983 76.75C166.771 76.75 168.157 77.2955 169.142 78.3864C170.127 79.4773 170.612 80.9924 170.597 82.9318V103H181.71V80.75C181.725 78.1136 181.225 75.8106 180.21 73.8409C179.21 71.8712 177.801 70.3485 175.983 69.2727C174.165 68.1818 172.028 67.6364 169.574 67.6364C166.968 67.6364 164.763 68.2424 162.96 69.4545C161.172 70.6667 159.884 72.3485 159.097 74.5H158.71V56.4545H147.96V103H159.074ZM195.511 101.5C198.163 102.939 201.314 103.659 204.966 103.659C208.011 103.659 210.693 103.197 213.011 102.273C215.33 101.333 217.201 100.023 218.625 98.3409C220.064 96.6439 220.996 94.6515 221.42 92.3636L211.216 92.0682C210.928 92.8409 210.496 93.4924 209.92 94.0227C209.345 94.553 208.655 94.9545 207.852 95.2273C207.049 95.5 206.155 95.6364 205.17 95.6364C203.746 95.6364 202.519 95.3409 201.489 94.75C200.458 94.1591 199.663 93.3333 199.102 92.2727C198.542 91.197 198.261 89.947 198.261 88.5227V88.2273H221.534V85.4545C221.534 82.5909 221.117 80.053 220.284 77.8409C219.451 75.6136 218.284 73.7424 216.784 72.2273C215.284 70.7121 213.504 69.5682 211.443 68.7955C209.383 68.0227 207.11 67.6364 204.625 67.6364C201.11 67.6364 198.057 68.3939 195.466 69.9091C192.875 71.4091 190.867 73.5152 189.443 76.2273C188.019 78.9242 187.307 82.0758 187.307 85.6818C187.307 89.3939 188.011 92.5985 189.42 95.2955C190.845 97.9773 192.875 100.045 195.511 101.5ZM198.268 81.7727C198.323 80.6491 198.624 79.6416 199.17 78.75C199.746 77.7955 200.527 77.0455 201.511 76.5C202.496 75.9394 203.61 75.6591 204.852 75.6591C206.08 75.6591 207.163 75.9242 208.102 76.4545C209.057 76.9697 209.807 77.6894 210.352 78.6136C210.898 79.5379 211.178 80.5909 211.193 81.7727H198.268ZM232.938 101.5C235.044 102.833 237.384 103.5 239.96 103.5C241.718 103.5 243.241 103.212 244.528 102.636C245.831 102.061 246.915 101.303 247.778 100.364C248.642 99.4242 249.309 98.4167 249.778 97.3409H250.119V103H261.119V56.4545H250.006V74.0682H249.778C249.339 73.0076 248.695 71.9848 247.847 71C246.998 70.0152 245.922 69.2121 244.619 68.5909C243.316 67.9545 241.748 67.6364 239.915 67.6364C237.475 67.6364 235.195 68.2727 233.074 69.5455C230.968 70.8182 229.263 72.7803 227.96 75.4318C226.657 78.0833 226.006 81.4621 226.006 85.5682C226.006 89.5227 226.634 92.8333 227.892 95.5C229.15 98.1667 230.831 100.167 232.938 101.5ZM247.278 93.7045C246.324 94.4621 245.172 94.8409 243.824 94.8409C242.445 94.8409 241.278 94.4621 240.324 93.7045C239.384 92.9318 238.665 91.8485 238.165 90.4545C237.665 89.0606 237.415 87.4242 237.415 85.5455C237.415 83.6667 237.657 82.0379 238.142 80.6591C238.642 79.2803 239.369 78.2121 240.324 77.4545C241.278 76.697 242.445 76.3182 243.824 76.3182C245.172 76.3182 246.324 76.6894 247.278 77.4318C248.248 78.1742 248.983 79.2348 249.483 80.6136C249.998 81.9924 250.256 83.6364 250.256 85.5455C250.256 87.4242 249.998 89.0606 249.483 90.4545C248.968 91.8485 248.233 92.9318 247.278 93.7045ZM290.67 68.0909V87.9318C290.67 89.2803 290.405 90.4318 289.875 91.3864C289.36 92.3258 288.655 93.0455 287.761 93.5455C286.883 94.0303 285.89 94.2727 284.784 94.2727C283.087 94.2727 281.746 93.7273 280.761 92.6364C279.777 91.5455 279.277 90.053 279.261 88.1591V68.0909H268.148V90.3409C268.163 92.9773 268.67 95.2803 269.67 97.25C270.67 99.2045 272.072 100.727 273.875 101.818C275.678 102.909 277.769 103.455 280.148 103.455C282.769 103.455 285.004 102.833 286.852 101.591C288.716 100.333 290.034 98.6364 290.807 96.5H291.17V103H301.761V68.0909H290.67ZM319.949 103V56.4545H308.835V103H319.949ZM333.886 101.5C336.538 102.939 339.689 103.659 343.341 103.659C346.386 103.659 349.068 103.197 351.386 102.273C353.705 101.333 355.576 100.023 357 98.3409C358.439 96.6439 359.371 94.6515 359.795 92.3636L349.591 92.0682C349.303 92.8409 348.871 93.4924 348.295 94.0227C347.72 94.553 347.03 94.9545 346.227 95.2273C345.424 95.5 344.53 95.6364 343.545 95.6364C342.121 95.6364 340.894 95.3409 339.864 94.75C338.833 94.1591 338.038 93.3333 337.477 92.2727C336.917 91.197 336.636 89.947 336.636 88.5227V88.2273H359.909V85.4545C359.909 82.5909 359.492 80.053 358.659 77.8409C357.826 75.6136 356.659 73.7424 355.159 72.2273C353.659 70.7121 351.879 69.5682 349.818 68.7955C347.758 68.0227 345.485 67.6364 343 67.6364C339.485 67.6364 336.432 68.3939 333.841 69.9091C331.25 71.4091 329.242 73.5152 327.818 76.2273C326.394 78.9242 325.682 82.0758 325.682 85.6818C325.682 89.3939 326.386 92.5985 327.795 95.2955C329.22 97.9773 331.25 100.045 333.886 101.5ZM336.643 81.7727C336.698 80.6491 336.999 79.6416 337.545 78.75C338.121 77.7955 338.902 77.0455 339.886 76.5C340.871 75.9394 341.985 75.6591 343.227 75.6591C344.455 75.6591 345.538 75.9242 346.477 76.4545C347.432 76.9697 348.182 77.6894 348.727 78.6136C349.273 79.5379 349.553 80.5909 349.568 81.7727H336.643ZM387.926 68.0909H376.767L385.858 103H397.767L403.222 82.6591H403.608L409.062 103H420.949L430.062 68.0909H418.903L414.335 90.2955H414.04L408.858 68.0909H397.972L392.926 90.4545H392.631L387.926 68.0909ZM445.636 68.0909H434.523V103H445.636V68.0909ZM436.068 62.4773C437.189 63.5076 438.53 64.0227 440.091 64.0227C441.667 64.0227 443.008 63.5076 444.114 62.4773C445.235 61.4318 445.795 60.1742 445.795 58.7045C445.795 57.25 445.235 56.0076 444.114 54.9773C443.008 53.9318 441.667 53.4091 440.091 53.4091C438.53 53.4091 437.189 53.9318 436.068 54.9773C434.947 56.0076 434.386 57.25 434.386 58.7045C434.386 60.1742 434.947 61.4318 436.068 62.4773ZM472.415 76.2727V68.0909H466.119V59.7273H455.006V68.0909H450.392V76.2727H455.006V93.25C454.975 95.6136 455.445 97.5758 456.415 99.1364C457.4 100.697 458.816 101.848 460.665 102.591C462.528 103.318 464.763 103.621 467.369 103.5C468.703 103.439 469.847 103.295 470.801 103.068C471.771 102.841 472.521 102.652 473.051 102.5L471.369 94.4773C471.127 94.5379 470.763 94.6136 470.278 94.7045C469.809 94.7803 469.362 94.8182 468.938 94.8182C468.347 94.8182 467.839 94.7348 467.415 94.5682C466.991 94.3864 466.665 94.0909 466.438 93.6818C466.225 93.2576 466.119 92.7045 466.119 92.0227V76.2727H472.415ZM489.949 103V83.0909C489.964 81.7576 490.214 80.6212 490.699 79.6818C491.199 78.7424 491.888 78.0227 492.767 77.5227C493.661 77.0076 494.691 76.75 495.858 76.75C497.646 76.75 499.032 77.2955 500.017 78.3864C501.002 79.4773 501.487 80.9924 501.472 82.9318V103H512.585V80.75C512.6 78.1136 512.1 75.8106 511.085 73.8409C510.085 71.8712 508.676 70.3485 506.858 69.2727C505.04 68.1818 502.903 67.6364 500.449 67.6364C497.843 67.6364 495.638 68.2424 493.835 69.4545C492.047 70.6667 490.759 72.3485 489.972 74.5H489.585V56.4545H478.835V103H489.949ZM555.795 68.0909V87.9318C555.795 89.2803 555.53 90.4318 555 91.3864C554.485 92.3258 553.78 93.0455 552.886 93.5455C552.008 94.0303 551.015 94.2727 549.909 94.2727C548.212 94.2727 546.871 93.7273 545.886 92.6364C544.901 91.5455 544.401 90.053 544.386 88.1591V68.0909H533.273V90.3409C533.288 92.9773 533.795 95.2803 534.795 97.25C535.795 99.2045 537.197 100.727 539 101.818C540.803 102.909 542.894 103.455 545.273 103.455C547.894 103.455 550.129 102.833 551.977 101.591C553.841 100.333 555.159 98.6364 555.932 96.5H556.295V103H566.886V68.0909H555.795ZM594.233 79.0227L604.438 78.75C604.15 75.2955 602.642 72.5833 599.915 70.6136C597.188 68.6288 593.46 67.6364 588.733 67.6364C585.581 67.6364 582.847 68.0758 580.528 68.9545C578.21 69.8333 576.422 71.1061 575.165 72.7727C573.907 74.4242 573.286 76.4167 573.301 78.75C573.286 81.4167 574.134 83.6136 575.847 85.3409C577.559 87.053 580.165 88.2273 583.665 88.8636L589.756 90.0227C591.21 90.2955 592.278 90.6742 592.96 91.1591C593.642 91.6288 593.991 92.2576 594.006 93.0455C593.991 93.9242 593.536 94.6288 592.642 95.1591C591.748 95.6894 590.589 95.9545 589.165 95.9545C587.589 95.9545 586.294 95.6212 585.278 94.9545C584.263 94.2879 583.634 93.3182 583.392 92.0455L572.415 92.3182C572.824 95.7727 574.46 98.5303 577.324 100.591C580.203 102.636 584.134 103.659 589.119 103.659C592.241 103.659 595.013 103.174 597.438 102.205C599.862 101.22 601.771 99.8409 603.165 98.0682C604.574 96.2955 605.286 94.2121 605.301 91.8182C605.286 89.2727 604.422 87.2273 602.71 85.6818C601.013 84.1364 598.422 83.0303 594.938 82.3636L588.21 81.0909C586.741 80.7879 585.718 80.3864 585.142 79.8864C584.581 79.3864 584.309 78.7955 584.324 78.1136C584.309 77.2348 584.748 76.5379 585.642 76.0227C586.551 75.5076 587.65 75.25 588.938 75.25C589.922 75.25 590.786 75.4167 591.528 75.75C592.286 76.0682 592.9 76.5152 593.369 77.0909C593.839 77.6515 594.127 78.2955 594.233 79.0227ZM622.795 88.75L623.841 56.4545H612.409L613.455 88.75H622.795ZM613.932 101.932C615.099 103.083 616.492 103.659 618.114 103.659C619.174 103.659 620.144 103.394 621.023 102.864C621.917 102.333 622.636 101.621 623.182 100.727C623.742 99.8333 624.023 98.8409 624.023 97.75C624.023 96.1439 623.424 94.7727 622.227 93.6364C621.045 92.4848 619.674 91.9091 618.114 91.9091C616.492 91.9091 615.099 92.4848 613.932 93.6364C612.78 94.7727 612.205 96.1439 612.205 97.75C612.205 99.3864 612.78 100.78 613.932 101.932Z" fill="black"/>
</svg>
