<svg width="587" height="101" viewBox="0 0 587 101" fill="none" xmlns="http://www.w3.org/2000/svg">
<mask id="path-1-outside-1_117_21" maskUnits="userSpaceOnUse" x="0" y="0" width="587" height="101" fill="black">
<rect fill="white" width="587" height="101"/>
<path d="M9.208 75.16C8.568 75.16 8.024 74.968 7.576 74.584C7.192 74.136 7 73.592 7 72.952V10.264C7 9.56 7.192 9.016 7.576 8.632C8.024 8.184 8.568 7.96 9.208 7.96H14.008C14.776 7.96 15.352 8.152 15.736 8.536C16.12 8.92 16.344 9.24 16.408 9.496L36.76 48.28L57.208 9.496C57.336 9.24 57.56 8.92 57.88 8.536C58.264 8.152 58.84 7.96 59.608 7.96H64.312C65.016 7.96 65.56 8.184 65.944 8.632C66.392 9.016 66.616 9.56 66.616 10.264V72.952C66.616 73.592 66.392 74.136 65.944 74.584C65.56 74.968 65.016 75.16 64.312 75.16H59.608C58.968 75.16 58.424 74.968 57.976 74.584C57.592 74.136 57.4 73.592 57.4 72.952V25.72L41.368 57.016C41.112 57.656 40.728 58.168 40.216 58.552C39.704 58.872 39.064 59.032 38.296 59.032H35.32C34.488 59.032 33.816 58.872 33.304 58.552C32.856 58.168 32.472 57.656 32.152 57.016L16.12 25.72V72.952C16.12 73.592 15.896 74.136 15.448 74.584C15.064 74.968 14.552 75.16 13.912 75.16H9.208Z"/>
<path d="M90.7067 93.4C90.1947 93.4 89.7467 93.208 89.3627 92.824C88.9787 92.44 88.7868 91.992 88.7868 91.48C88.7868 91.224 88.8188 90.968 88.8828 90.712C88.9468 90.456 89.0747 90.136 89.2667 89.752L96.6588 72.184L78.3227 28.888C78.0027 28.12 77.8428 27.576 77.8428 27.256C77.8428 26.68 78.0347 26.2 78.4187 25.816C78.8027 25.432 79.2827 25.24 79.8587 25.24H84.5628C85.2028 25.24 85.7147 25.4 86.0987 25.72C86.4827 26.04 86.7388 26.424 86.8668 26.872L101.459 61.816L116.435 26.872C116.627 26.424 116.883 26.04 117.203 25.72C117.587 25.4 118.131 25.24 118.835 25.24H123.347C123.923 25.24 124.403 25.432 124.787 25.816C125.171 26.2 125.363 26.648 125.363 27.16C125.363 27.48 125.203 28.056 124.883 28.888L97.6188 91.768C97.4268 92.216 97.1388 92.6 96.7548 92.92C96.4348 93.24 95.9227 93.4 95.2188 93.4H90.7067Z"/>
<path d="M157.694 76.12C152.126 76.12 147.454 75.288 143.678 73.624C139.902 71.896 136.99 69.688 134.942 67C132.958 64.248 131.902 61.336 131.774 58.264C131.774 57.752 131.966 57.304 132.35 56.92C132.798 56.472 133.31 56.248 133.886 56.248H138.782C139.55 56.248 140.126 56.44 140.51 56.824C140.894 57.208 141.15 57.656 141.278 58.168C141.598 59.704 142.366 61.24 143.582 62.776C144.862 64.248 146.622 65.496 148.862 66.52C151.166 67.48 154.11 67.96 157.694 67.96C163.198 67.96 167.23 67 169.79 65.08C172.414 63.096 173.726 60.472 173.726 57.208C173.726 54.968 173.022 53.176 171.614 51.832C170.27 50.424 168.19 49.176 165.374 48.088C162.558 47 158.91 45.816 154.43 44.536C149.758 43.192 145.886 41.72 142.814 40.12C139.742 38.52 137.438 36.536 135.902 34.168C134.43 31.8 133.694 28.792 133.694 25.144C133.694 21.688 134.622 18.616 136.478 15.928C138.334 13.176 140.99 11 144.446 9.4C147.966 7.8 152.222 7 157.214 7C161.182 7 164.638 7.544 167.582 8.632C170.59 9.656 173.086 11.064 175.07 12.856C177.054 14.584 178.558 16.472 179.582 18.52C180.606 20.504 181.15 22.456 181.214 24.376C181.214 24.824 181.054 25.272 180.734 25.72C180.414 26.104 179.902 26.296 179.198 26.296H174.11C173.662 26.296 173.182 26.168 172.67 25.912C172.222 25.656 171.87 25.176 171.614 24.472C171.23 21.848 169.758 19.64 167.198 17.848C164.638 16.056 161.31 15.16 157.214 15.16C153.054 15.16 149.662 15.96 147.038 17.56C144.478 19.16 143.198 21.656 143.198 25.048C143.198 27.224 143.806 29.048 145.022 30.52C146.238 31.928 148.158 33.176 150.782 34.264C153.406 35.352 156.83 36.504 161.054 37.72C166.174 39.128 170.366 40.632 173.63 42.232C176.894 43.768 179.294 45.72 180.83 48.088C182.43 50.392 183.23 53.368 183.23 57.016C183.23 61.048 182.174 64.504 180.062 67.384C177.95 70.2 174.974 72.376 171.134 73.912C167.358 75.384 162.878 76.12 157.694 76.12Z"/>
<path d="M214.725 76.12C210.181 76.12 206.245 75.256 202.917 73.528C199.653 71.736 197.125 69.208 195.333 65.944C193.541 62.616 192.58 58.648 192.452 54.04C192.388 53.08 192.357 51.8 192.357 50.2C192.357 48.6 192.388 47.32 192.452 46.36C192.58 41.752 193.541 37.816 195.333 34.552C197.125 31.224 199.653 28.696 202.917 26.968C206.245 25.176 210.181 24.28 214.725 24.28C218.437 24.28 221.604 24.792 224.229 25.816C226.917 26.84 229.125 28.152 230.853 29.752C232.581 31.352 233.861 33.08 234.693 34.936C235.589 36.792 236.069 38.552 236.133 40.216C236.197 40.856 236.005 41.368 235.557 41.752C235.109 42.136 234.564 42.328 233.924 42.328H229.316C228.676 42.328 228.196 42.2 227.876 41.944C227.556 41.624 227.237 41.112 226.917 40.408C225.765 37.272 224.196 35.064 222.212 33.784C220.228 32.504 217.764 31.864 214.82 31.864C210.98 31.864 207.845 33.048 205.413 35.416C203.045 37.784 201.764 41.592 201.572 46.84C201.508 49.144 201.508 51.384 201.572 53.56C201.764 58.872 203.045 62.712 205.413 65.08C207.845 67.384 210.98 68.536 214.82 68.536C217.764 68.536 220.228 67.896 222.212 66.616C224.196 65.336 225.765 63.128 226.917 59.992C227.237 59.288 227.556 58.808 227.876 58.552C228.196 58.232 228.676 58.072 229.316 58.072H233.924C234.564 58.072 235.109 58.264 235.557 58.648C236.005 59.032 236.197 59.544 236.133 60.184C236.069 61.528 235.781 62.904 235.269 64.312C234.757 65.72 233.925 67.16 232.773 68.632C231.685 70.04 230.309 71.32 228.645 72.472C226.981 73.56 224.964 74.456 222.596 75.16C220.292 75.8 217.669 76.12 214.725 76.12Z"/>
<path d="M249.837 75.16C249.197 75.16 248.653 74.968 248.205 74.584C247.821 74.136 247.629 73.592 247.629 72.952V9.208C247.629 8.568 247.821 8.056 248.205 7.672C248.653 7.224 249.197 7 249.837 7H254.637C255.341 7 255.885 7.224 256.269 7.672C256.653 8.056 256.845 8.568 256.845 9.208V31.576C258.573 29.4 260.685 27.64 263.181 26.296C265.677 24.952 268.845 24.28 272.685 24.28C276.845 24.28 280.365 25.208 283.245 27.064C286.189 28.856 288.397 31.384 289.869 34.648C291.405 37.848 292.173 41.592 292.173 45.88V72.952C292.173 73.592 291.981 74.136 291.597 74.584C291.213 74.968 290.669 75.16 289.965 75.16H285.165C284.525 75.16 283.981 74.968 283.533 74.584C283.149 74.136 282.957 73.592 282.957 72.952V46.36C282.957 41.88 281.869 38.392 279.693 35.896C277.517 33.336 274.317 32.056 270.093 32.056C266.125 32.056 262.925 33.336 260.493 35.896C258.061 38.392 256.845 41.88 256.845 46.36V72.952C256.845 73.592 256.653 74.136 256.269 74.584C255.885 74.968 255.341 75.16 254.637 75.16H249.837Z"/>
<path d="M325.905 76.12C319.313 76.12 314.065 74.104 310.161 70.072C306.257 65.976 304.113 60.408 303.729 53.368C303.665 52.536 303.633 51.48 303.633 50.2C303.633 48.856 303.665 47.768 303.729 46.936C303.985 42.392 305.041 38.424 306.897 35.032C308.753 31.576 311.281 28.92 314.481 27.064C317.745 25.208 321.553 24.28 325.905 24.28C330.769 24.28 334.833 25.304 338.097 27.352C341.425 29.4 343.953 32.312 345.681 36.088C347.409 39.864 348.273 44.28 348.273 49.336V50.968C348.273 51.672 348.049 52.216 347.601 52.6C347.217 52.984 346.705 53.176 346.065 53.176H312.849C312.849 53.24 312.849 53.368 312.849 53.56C312.849 53.752 312.849 53.912 312.849 54.04C312.977 56.664 313.553 59.128 314.577 61.432C315.601 63.672 317.073 65.496 318.993 66.904C320.913 68.312 323.217 69.016 325.905 69.016C328.209 69.016 330.129 68.664 331.665 67.96C333.201 67.256 334.449 66.488 335.409 65.656C336.369 64.76 337.009 64.088 337.329 63.64C337.905 62.808 338.353 62.328 338.673 62.2C338.993 62.008 339.505 61.912 340.209 61.912H344.817C345.457 61.912 345.969 62.104 346.353 62.488C346.801 62.808 346.993 63.288 346.929 63.928C346.865 64.888 346.353 66.072 345.393 67.48C344.433 68.824 343.057 70.168 341.265 71.512C339.473 72.856 337.297 73.976 334.737 74.872C332.177 75.704 329.233 76.12 325.905 76.12ZM312.849 46.552H339.153V46.264C339.153 43.384 338.609 40.824 337.521 38.584C336.497 36.344 334.993 34.584 333.009 33.304C331.025 31.96 328.657 31.288 325.905 31.288C323.153 31.288 320.785 31.96 318.801 33.304C316.881 34.584 315.409 36.344 314.385 38.584C313.361 40.824 312.849 43.384 312.849 46.264V46.552Z"/>
<path d="M377.992 76.12C374.472 76.12 371.432 75.512 368.872 74.296C366.312 73.016 364.2 71.32 362.536 69.208C360.936 67.032 359.72 64.568 358.888 61.816C358.12 59.064 357.672 56.152 357.544 53.08C357.48 52.056 357.448 51.096 357.448 50.2C357.448 49.304 357.48 48.344 357.544 47.32C357.672 44.312 358.12 41.432 358.888 38.68C359.72 35.928 360.936 33.464 362.536 31.288C364.2 29.112 366.312 27.416 368.872 26.2C371.432 24.92 374.472 24.28 377.992 24.28C381.768 24.28 384.904 24.952 387.4 26.296C389.896 27.64 391.944 29.304 393.544 31.288V9.208C393.544 8.568 393.736 8.056 394.12 7.672C394.568 7.224 395.112 7 395.752 7H400.36C401 7 401.512 7.224 401.896 7.672C402.344 8.056 402.568 8.568 402.568 9.208V72.952C402.568 73.592 402.344 74.136 401.896 74.584C401.512 74.968 401 75.16 400.36 75.16H396.04C395.336 75.16 394.792 74.968 394.408 74.584C394.024 74.136 393.832 73.592 393.832 72.952V68.92C392.232 70.968 390.152 72.696 387.592 74.104C385.032 75.448 381.832 76.12 377.992 76.12ZM380.008 68.344C383.208 68.344 385.768 67.608 387.688 66.136C389.608 64.664 391.048 62.808 392.008 60.568C392.968 58.264 393.48 55.928 393.544 53.56C393.608 52.536 393.64 51.32 393.64 49.912C393.64 48.44 393.608 47.192 393.544 46.168C393.48 43.928 392.936 41.72 391.912 39.544C390.952 37.368 389.48 35.576 387.496 34.168C385.576 32.76 383.08 32.056 380.008 32.056C376.744 32.056 374.152 32.792 372.232 34.264C370.312 35.672 368.936 37.56 368.104 39.928C367.272 42.232 366.792 44.728 366.664 47.416C366.6 49.272 366.6 51.128 366.664 52.984C366.792 55.672 367.272 58.2 368.104 60.568C368.936 62.872 370.312 64.76 372.232 66.232C374.152 67.64 376.744 68.344 380.008 68.344Z"/>
<path d="M435.47 76.12C431.374 76.12 427.886 75.224 425.006 73.432C422.19 71.576 420.046 69.016 418.574 65.752C417.102 62.488 416.366 58.744 416.366 54.52V27.448C416.366 26.808 416.558 26.296 416.942 25.912C417.39 25.464 417.934 25.24 418.574 25.24H423.374C424.014 25.24 424.526 25.464 424.91 25.912C425.358 26.296 425.582 26.808 425.582 27.448V54.04C425.582 63.576 429.742 68.344 438.062 68.344C442.03 68.344 445.198 67.096 447.566 64.6C449.998 62.04 451.214 58.52 451.214 54.04V27.448C451.214 26.808 451.406 26.296 451.79 25.912C452.238 25.464 452.782 25.24 453.422 25.24H458.126C458.83 25.24 459.374 25.464 459.758 25.912C460.142 26.296 460.334 26.808 460.334 27.448V72.952C460.334 73.592 460.142 74.136 459.758 74.584C459.374 74.968 458.83 75.16 458.126 75.16H453.71C453.07 75.16 452.526 74.968 452.078 74.584C451.694 74.136 451.502 73.592 451.502 72.952V68.728C449.774 70.968 447.662 72.76 445.166 74.104C442.734 75.448 439.502 76.12 435.47 76.12Z"/>
<path d="M476.9 75.16C476.26 75.16 475.716 74.968 475.268 74.584C474.884 74.136 474.692 73.592 474.692 72.952V9.208C474.692 8.568 474.884 8.056 475.268 7.672C475.716 7.224 476.26 7 476.9 7H481.412C482.116 7 482.66 7.224 483.044 7.672C483.428 8.056 483.62 8.568 483.62 9.208V72.952C483.62 73.592 483.428 74.136 483.044 74.584C482.66 74.968 482.116 75.16 481.412 75.16H476.9Z"/>
<path d="M511.859 76.12C508.659 76.12 505.748 75.48 503.124 74.2C500.5 72.92 498.388 71.192 496.788 69.016C495.188 66.84 494.388 64.376 494.388 61.624C494.388 57.208 496.179 53.688 499.763 51.064C503.347 48.44 508.02 46.712 513.78 45.88L528.083 43.864V41.08C528.083 38.008 527.188 35.608 525.396 33.88C523.668 32.152 520.819 31.288 516.852 31.288C513.972 31.288 511.636 31.864 509.844 33.016C508.116 34.168 506.899 35.64 506.195 37.432C505.811 38.392 505.14 38.872 504.18 38.872H499.859C499.155 38.872 498.612 38.68 498.228 38.296C497.908 37.848 497.747 37.336 497.747 36.76C497.747 35.8 498.099 34.616 498.803 33.208C499.571 31.8 500.723 30.424 502.259 29.08C503.795 27.736 505.748 26.616 508.116 25.72C510.548 24.76 513.492 24.28 516.948 24.28C520.788 24.28 524.019 24.792 526.643 25.816C529.267 26.776 531.315 28.088 532.787 29.752C534.323 31.416 535.412 33.304 536.052 35.416C536.756 37.528 537.107 39.672 537.107 41.848V72.952C537.107 73.592 536.883 74.136 536.435 74.584C536.051 74.968 535.539 75.16 534.899 75.16H530.484C529.78 75.16 529.236 74.968 528.852 74.584C528.468 74.136 528.276 73.592 528.276 72.952V68.824C527.444 69.976 526.324 71.128 524.916 72.28C523.508 73.368 521.747 74.296 519.635 75.064C517.523 75.768 514.931 76.12 511.859 76.12ZM513.875 68.92C516.499 68.92 518.899 68.376 521.076 67.288C523.251 66.136 524.948 64.376 526.164 62.008C527.444 59.64 528.083 56.664 528.083 53.08V50.392L516.948 52.024C512.404 52.664 508.98 53.752 506.676 55.288C504.372 56.76 503.22 58.648 503.22 60.952C503.22 62.744 503.731 64.248 504.755 65.464C505.843 66.616 507.188 67.48 508.788 68.056C510.452 68.632 512.147 68.92 513.875 68.92Z"/>
<path d="M553.116 75.16C552.476 75.16 551.932 74.968 551.484 74.584C551.1 74.136 550.908 73.592 550.908 72.952V27.544C550.908 26.904 551.1 26.36 551.484 25.912C551.932 25.464 552.476 25.24 553.116 25.24H557.532C558.172 25.24 558.716 25.464 559.164 25.912C559.612 26.36 559.836 26.904 559.836 27.544V31.768C561.116 29.592 562.876 27.96 565.116 26.872C567.356 25.784 570.044 25.24 573.18 25.24H577.02C577.66 25.24 578.172 25.464 578.556 25.912C578.94 26.296 579.132 26.808 579.132 27.448V31.384C579.132 32.024 578.94 32.536 578.556 32.92C578.172 33.304 577.66 33.496 577.02 33.496H571.26C567.804 33.496 565.084 34.52 563.1 36.568C561.116 38.552 560.124 41.272 560.124 44.728V72.952C560.124 73.592 559.9 74.136 559.452 74.584C559.004 74.968 558.46 75.16 557.82 75.16H553.116Z"/>
</mask>
<path d="M9.208 75.16C8.568 75.16 8.024 74.968 7.576 74.584C7.192 74.136 7 73.592 7 72.952V10.264C7 9.56 7.192 9.016 7.576 8.632C8.024 8.184 8.568 7.96 9.208 7.96H14.008C14.776 7.96 15.352 8.152 15.736 8.536C16.12 8.92 16.344 9.24 16.408 9.496L36.76 48.28L57.208 9.496C57.336 9.24 57.56 8.92 57.88 8.536C58.264 8.152 58.84 7.96 59.608 7.96H64.312C65.016 7.96 65.56 8.184 65.944 8.632C66.392 9.016 66.616 9.56 66.616 10.264V72.952C66.616 73.592 66.392 74.136 65.944 74.584C65.56 74.968 65.016 75.16 64.312 75.16H59.608C58.968 75.16 58.424 74.968 57.976 74.584C57.592 74.136 57.4 73.592 57.4 72.952V25.72L41.368 57.016C41.112 57.656 40.728 58.168 40.216 58.552C39.704 58.872 39.064 59.032 38.296 59.032H35.32C34.488 59.032 33.816 58.872 33.304 58.552C32.856 58.168 32.472 57.656 32.152 57.016L16.12 25.72V72.952C16.12 73.592 15.896 74.136 15.448 74.584C15.064 74.968 14.552 75.16 13.912 75.16H9.208Z" stroke="url(#paint0_linear_117_21)" stroke-width="14" mask="url(#path-1-outside-1_117_21)"/>
<path d="M90.7067 93.4C90.1947 93.4 89.7467 93.208 89.3627 92.824C88.9787 92.44 88.7868 91.992 88.7868 91.48C88.7868 91.224 88.8188 90.968 88.8828 90.712C88.9468 90.456 89.0747 90.136 89.2667 89.752L96.6588 72.184L78.3227 28.888C78.0027 28.12 77.8428 27.576 77.8428 27.256C77.8428 26.68 78.0347 26.2 78.4187 25.816C78.8027 25.432 79.2827 25.24 79.8587 25.24H84.5628C85.2028 25.24 85.7147 25.4 86.0987 25.72C86.4827 26.04 86.7388 26.424 86.8668 26.872L101.459 61.816L116.435 26.872C116.627 26.424 116.883 26.04 117.203 25.72C117.587 25.4 118.131 25.24 118.835 25.24H123.347C123.923 25.24 124.403 25.432 124.787 25.816C125.171 26.2 125.363 26.648 125.363 27.16C125.363 27.48 125.203 28.056 124.883 28.888L97.6188 91.768C97.4268 92.216 97.1388 92.6 96.7548 92.92C96.4348 93.24 95.9227 93.4 95.2188 93.4H90.7067Z" stroke="url(#paint1_linear_117_21)" stroke-width="14" mask="url(#path-1-outside-1_117_21)"/>
<path d="M157.694 76.12C152.126 76.12 147.454 75.288 143.678 73.624C139.902 71.896 136.99 69.688 134.942 67C132.958 64.248 131.902 61.336 131.774 58.264C131.774 57.752 131.966 57.304 132.35 56.92C132.798 56.472 133.31 56.248 133.886 56.248H138.782C139.55 56.248 140.126 56.44 140.51 56.824C140.894 57.208 141.15 57.656 141.278 58.168C141.598 59.704 142.366 61.24 143.582 62.776C144.862 64.248 146.622 65.496 148.862 66.52C151.166 67.48 154.11 67.96 157.694 67.96C163.198 67.96 167.23 67 169.79 65.08C172.414 63.096 173.726 60.472 173.726 57.208C173.726 54.968 173.022 53.176 171.614 51.832C170.27 50.424 168.19 49.176 165.374 48.088C162.558 47 158.91 45.816 154.43 44.536C149.758 43.192 145.886 41.72 142.814 40.12C139.742 38.52 137.438 36.536 135.902 34.168C134.43 31.8 133.694 28.792 133.694 25.144C133.694 21.688 134.622 18.616 136.478 15.928C138.334 13.176 140.99 11 144.446 9.4C147.966 7.8 152.222 7 157.214 7C161.182 7 164.638 7.544 167.582 8.632C170.59 9.656 173.086 11.064 175.07 12.856C177.054 14.584 178.558 16.472 179.582 18.52C180.606 20.504 181.15 22.456 181.214 24.376C181.214 24.824 181.054 25.272 180.734 25.72C180.414 26.104 179.902 26.296 179.198 26.296H174.11C173.662 26.296 173.182 26.168 172.67 25.912C172.222 25.656 171.87 25.176 171.614 24.472C171.23 21.848 169.758 19.64 167.198 17.848C164.638 16.056 161.31 15.16 157.214 15.16C153.054 15.16 149.662 15.96 147.038 17.56C144.478 19.16 143.198 21.656 143.198 25.048C143.198 27.224 143.806 29.048 145.022 30.52C146.238 31.928 148.158 33.176 150.782 34.264C153.406 35.352 156.83 36.504 161.054 37.72C166.174 39.128 170.366 40.632 173.63 42.232C176.894 43.768 179.294 45.72 180.83 48.088C182.43 50.392 183.23 53.368 183.23 57.016C183.23 61.048 182.174 64.504 180.062 67.384C177.95 70.2 174.974 72.376 171.134 73.912C167.358 75.384 162.878 76.12 157.694 76.12Z" stroke="url(#paint2_linear_117_21)" stroke-width="14" mask="url(#path-1-outside-1_117_21)"/>
<path d="M214.725 76.12C210.181 76.12 206.245 75.256 202.917 73.528C199.653 71.736 197.125 69.208 195.333 65.944C193.541 62.616 192.58 58.648 192.452 54.04C192.388 53.08 192.357 51.8 192.357 50.2C192.357 48.6 192.388 47.32 192.452 46.36C192.58 41.752 193.541 37.816 195.333 34.552C197.125 31.224 199.653 28.696 202.917 26.968C206.245 25.176 210.181 24.28 214.725 24.28C218.437 24.28 221.604 24.792 224.229 25.816C226.917 26.84 229.125 28.152 230.853 29.752C232.581 31.352 233.861 33.08 234.693 34.936C235.589 36.792 236.069 38.552 236.133 40.216C236.197 40.856 236.005 41.368 235.557 41.752C235.109 42.136 234.564 42.328 233.924 42.328H229.316C228.676 42.328 228.196 42.2 227.876 41.944C227.556 41.624 227.237 41.112 226.917 40.408C225.765 37.272 224.196 35.064 222.212 33.784C220.228 32.504 217.764 31.864 214.82 31.864C210.98 31.864 207.845 33.048 205.413 35.416C203.045 37.784 201.764 41.592 201.572 46.84C201.508 49.144 201.508 51.384 201.572 53.56C201.764 58.872 203.045 62.712 205.413 65.08C207.845 67.384 210.98 68.536 214.82 68.536C217.764 68.536 220.228 67.896 222.212 66.616C224.196 65.336 225.765 63.128 226.917 59.992C227.237 59.288 227.556 58.808 227.876 58.552C228.196 58.232 228.676 58.072 229.316 58.072H233.924C234.564 58.072 235.109 58.264 235.557 58.648C236.005 59.032 236.197 59.544 236.133 60.184C236.069 61.528 235.781 62.904 235.269 64.312C234.757 65.72 233.925 67.16 232.773 68.632C231.685 70.04 230.309 71.32 228.645 72.472C226.981 73.56 224.964 74.456 222.596 75.16C220.292 75.8 217.669 76.12 214.725 76.12Z" stroke="url(#paint3_linear_117_21)" stroke-width="14" mask="url(#path-1-outside-1_117_21)"/>
<path d="M249.837 75.16C249.197 75.16 248.653 74.968 248.205 74.584C247.821 74.136 247.629 73.592 247.629 72.952V9.208C247.629 8.568 247.821 8.056 248.205 7.672C248.653 7.224 249.197 7 249.837 7H254.637C255.341 7 255.885 7.224 256.269 7.672C256.653 8.056 256.845 8.568 256.845 9.208V31.576C258.573 29.4 260.685 27.64 263.181 26.296C265.677 24.952 268.845 24.28 272.685 24.28C276.845 24.28 280.365 25.208 283.245 27.064C286.189 28.856 288.397 31.384 289.869 34.648C291.405 37.848 292.173 41.592 292.173 45.88V72.952C292.173 73.592 291.981 74.136 291.597 74.584C291.213 74.968 290.669 75.16 289.965 75.16H285.165C284.525 75.16 283.981 74.968 283.533 74.584C283.149 74.136 282.957 73.592 282.957 72.952V46.36C282.957 41.88 281.869 38.392 279.693 35.896C277.517 33.336 274.317 32.056 270.093 32.056C266.125 32.056 262.925 33.336 260.493 35.896C258.061 38.392 256.845 41.88 256.845 46.36V72.952C256.845 73.592 256.653 74.136 256.269 74.584C255.885 74.968 255.341 75.16 254.637 75.16H249.837Z" stroke="url(#paint4_linear_117_21)" stroke-width="14" mask="url(#path-1-outside-1_117_21)"/>
<path d="M325.905 76.12C319.313 76.12 314.065 74.104 310.161 70.072C306.257 65.976 304.113 60.408 303.729 53.368C303.665 52.536 303.633 51.48 303.633 50.2C303.633 48.856 303.665 47.768 303.729 46.936C303.985 42.392 305.041 38.424 306.897 35.032C308.753 31.576 311.281 28.92 314.481 27.064C317.745 25.208 321.553 24.28 325.905 24.28C330.769 24.28 334.833 25.304 338.097 27.352C341.425 29.4 343.953 32.312 345.681 36.088C347.409 39.864 348.273 44.28 348.273 49.336V50.968C348.273 51.672 348.049 52.216 347.601 52.6C347.217 52.984 346.705 53.176 346.065 53.176H312.849C312.849 53.24 312.849 53.368 312.849 53.56C312.849 53.752 312.849 53.912 312.849 54.04C312.977 56.664 313.553 59.128 314.577 61.432C315.601 63.672 317.073 65.496 318.993 66.904C320.913 68.312 323.217 69.016 325.905 69.016C328.209 69.016 330.129 68.664 331.665 67.96C333.201 67.256 334.449 66.488 335.409 65.656C336.369 64.76 337.009 64.088 337.329 63.64C337.905 62.808 338.353 62.328 338.673 62.2C338.993 62.008 339.505 61.912 340.209 61.912H344.817C345.457 61.912 345.969 62.104 346.353 62.488C346.801 62.808 346.993 63.288 346.929 63.928C346.865 64.888 346.353 66.072 345.393 67.48C344.433 68.824 343.057 70.168 341.265 71.512C339.473 72.856 337.297 73.976 334.737 74.872C332.177 75.704 329.233 76.12 325.905 76.12ZM312.849 46.552H339.153V46.264C339.153 43.384 338.609 40.824 337.521 38.584C336.497 36.344 334.993 34.584 333.009 33.304C331.025 31.96 328.657 31.288 325.905 31.288C323.153 31.288 320.785 31.96 318.801 33.304C316.881 34.584 315.409 36.344 314.385 38.584C313.361 40.824 312.849 43.384 312.849 46.264V46.552Z" stroke="url(#paint5_linear_117_21)" stroke-width="14" mask="url(#path-1-outside-1_117_21)"/>
<path d="M377.992 76.12C374.472 76.12 371.432 75.512 368.872 74.296C366.312 73.016 364.2 71.32 362.536 69.208C360.936 67.032 359.72 64.568 358.888 61.816C358.12 59.064 357.672 56.152 357.544 53.08C357.48 52.056 357.448 51.096 357.448 50.2C357.448 49.304 357.48 48.344 357.544 47.32C357.672 44.312 358.12 41.432 358.888 38.68C359.72 35.928 360.936 33.464 362.536 31.288C364.2 29.112 366.312 27.416 368.872 26.2C371.432 24.92 374.472 24.28 377.992 24.28C381.768 24.28 384.904 24.952 387.4 26.296C389.896 27.64 391.944 29.304 393.544 31.288V9.208C393.544 8.568 393.736 8.056 394.12 7.672C394.568 7.224 395.112 7 395.752 7H400.36C401 7 401.512 7.224 401.896 7.672C402.344 8.056 402.568 8.568 402.568 9.208V72.952C402.568 73.592 402.344 74.136 401.896 74.584C401.512 74.968 401 75.16 400.36 75.16H396.04C395.336 75.16 394.792 74.968 394.408 74.584C394.024 74.136 393.832 73.592 393.832 72.952V68.92C392.232 70.968 390.152 72.696 387.592 74.104C385.032 75.448 381.832 76.12 377.992 76.12ZM380.008 68.344C383.208 68.344 385.768 67.608 387.688 66.136C389.608 64.664 391.048 62.808 392.008 60.568C392.968 58.264 393.48 55.928 393.544 53.56C393.608 52.536 393.64 51.32 393.64 49.912C393.64 48.44 393.608 47.192 393.544 46.168C393.48 43.928 392.936 41.72 391.912 39.544C390.952 37.368 389.48 35.576 387.496 34.168C385.576 32.76 383.08 32.056 380.008 32.056C376.744 32.056 374.152 32.792 372.232 34.264C370.312 35.672 368.936 37.56 368.104 39.928C367.272 42.232 366.792 44.728 366.664 47.416C366.6 49.272 366.6 51.128 366.664 52.984C366.792 55.672 367.272 58.2 368.104 60.568C368.936 62.872 370.312 64.76 372.232 66.232C374.152 67.64 376.744 68.344 380.008 68.344Z" stroke="url(#paint6_linear_117_21)" stroke-width="14" mask="url(#path-1-outside-1_117_21)"/>
<path d="M435.47 76.12C431.374 76.12 427.886 75.224 425.006 73.432C422.19 71.576 420.046 69.016 418.574 65.752C417.102 62.488 416.366 58.744 416.366 54.52V27.448C416.366 26.808 416.558 26.296 416.942 25.912C417.39 25.464 417.934 25.24 418.574 25.24H423.374C424.014 25.24 424.526 25.464 424.91 25.912C425.358 26.296 425.582 26.808 425.582 27.448V54.04C425.582 63.576 429.742 68.344 438.062 68.344C442.03 68.344 445.198 67.096 447.566 64.6C449.998 62.04 451.214 58.52 451.214 54.04V27.448C451.214 26.808 451.406 26.296 451.79 25.912C452.238 25.464 452.782 25.24 453.422 25.24H458.126C458.83 25.24 459.374 25.464 459.758 25.912C460.142 26.296 460.334 26.808 460.334 27.448V72.952C460.334 73.592 460.142 74.136 459.758 74.584C459.374 74.968 458.83 75.16 458.126 75.16H453.71C453.07 75.16 452.526 74.968 452.078 74.584C451.694 74.136 451.502 73.592 451.502 72.952V68.728C449.774 70.968 447.662 72.76 445.166 74.104C442.734 75.448 439.502 76.12 435.47 76.12Z" stroke="url(#paint7_linear_117_21)" stroke-width="14" mask="url(#path-1-outside-1_117_21)"/>
<path d="M476.9 75.16C476.26 75.16 475.716 74.968 475.268 74.584C474.884 74.136 474.692 73.592 474.692 72.952V9.208C474.692 8.568 474.884 8.056 475.268 7.672C475.716 7.224 476.26 7 476.9 7H481.412C482.116 7 482.66 7.224 483.044 7.672C483.428 8.056 483.62 8.568 483.62 9.208V72.952C483.62 73.592 483.428 74.136 483.044 74.584C482.66 74.968 482.116 75.16 481.412 75.16H476.9Z" stroke="url(#paint8_linear_117_21)" stroke-width="14" mask="url(#path-1-outside-1_117_21)"/>
<path d="M511.859 76.12C508.659 76.12 505.748 75.48 503.124 74.2C500.5 72.92 498.388 71.192 496.788 69.016C495.188 66.84 494.388 64.376 494.388 61.624C494.388 57.208 496.179 53.688 499.763 51.064C503.347 48.44 508.02 46.712 513.78 45.88L528.083 43.864V41.08C528.083 38.008 527.188 35.608 525.396 33.88C523.668 32.152 520.819 31.288 516.852 31.288C513.972 31.288 511.636 31.864 509.844 33.016C508.116 34.168 506.899 35.64 506.195 37.432C505.811 38.392 505.14 38.872 504.18 38.872H499.859C499.155 38.872 498.612 38.68 498.228 38.296C497.908 37.848 497.747 37.336 497.747 36.76C497.747 35.8 498.099 34.616 498.803 33.208C499.571 31.8 500.723 30.424 502.259 29.08C503.795 27.736 505.748 26.616 508.116 25.72C510.548 24.76 513.492 24.28 516.948 24.28C520.788 24.28 524.019 24.792 526.643 25.816C529.267 26.776 531.315 28.088 532.787 29.752C534.323 31.416 535.412 33.304 536.052 35.416C536.756 37.528 537.107 39.672 537.107 41.848V72.952C537.107 73.592 536.883 74.136 536.435 74.584C536.051 74.968 535.539 75.16 534.899 75.16H530.484C529.78 75.16 529.236 74.968 528.852 74.584C528.468 74.136 528.276 73.592 528.276 72.952V68.824C527.444 69.976 526.324 71.128 524.916 72.28C523.508 73.368 521.747 74.296 519.635 75.064C517.523 75.768 514.931 76.12 511.859 76.12ZM513.875 68.92C516.499 68.92 518.899 68.376 521.076 67.288C523.251 66.136 524.948 64.376 526.164 62.008C527.444 59.64 528.083 56.664 528.083 53.08V50.392L516.948 52.024C512.404 52.664 508.98 53.752 506.676 55.288C504.372 56.76 503.22 58.648 503.22 60.952C503.22 62.744 503.731 64.248 504.755 65.464C505.843 66.616 507.188 67.48 508.788 68.056C510.452 68.632 512.147 68.92 513.875 68.92Z" stroke="url(#paint9_linear_117_21)" stroke-width="14" mask="url(#path-1-outside-1_117_21)"/>
<path d="M553.116 75.16C552.476 75.16 551.932 74.968 551.484 74.584C551.1 74.136 550.908 73.592 550.908 72.952V27.544C550.908 26.904 551.1 26.36 551.484 25.912C551.932 25.464 552.476 25.24 553.116 25.24H557.532C558.172 25.24 558.716 25.464 559.164 25.912C559.612 26.36 559.836 26.904 559.836 27.544V31.768C561.116 29.592 562.876 27.96 565.116 26.872C567.356 25.784 570.044 25.24 573.18 25.24H577.02C577.66 25.24 578.172 25.464 578.556 25.912C578.94 26.296 579.132 26.808 579.132 27.448V31.384C579.132 32.024 578.94 32.536 578.556 32.92C578.172 33.304 577.66 33.496 577.02 33.496H571.26C567.804 33.496 565.084 34.52 563.1 36.568C561.116 38.552 560.124 41.272 560.124 44.728V72.952C560.124 73.592 559.9 74.136 559.452 74.584C559.004 74.968 558.46 75.16 557.82 75.16H553.116Z" stroke="url(#paint10_linear_117_21)" stroke-width="14" mask="url(#path-1-outside-1_117_21)"/>
<defs>
<linearGradient id="paint0_linear_117_21" x1="7" y1="50.2" x2="579.132" y2="50.2" gradientUnits="userSpaceOnUse">
<stop stop-color="white"/>
<stop offset="1" stop-color="#FFA500"/>
</linearGradient>
<linearGradient id="paint1_linear_117_21" x1="7" y1="50.2" x2="579.132" y2="50.2" gradientUnits="userSpaceOnUse">
<stop stop-color="white"/>
<stop offset="1" stop-color="#FFA500"/>
</linearGradient>
<linearGradient id="paint2_linear_117_21" x1="7" y1="50.2" x2="579.132" y2="50.2" gradientUnits="userSpaceOnUse">
<stop stop-color="white"/>
<stop offset="1" stop-color="#FFA500"/>
</linearGradient>
<linearGradient id="paint3_linear_117_21" x1="7" y1="50.2" x2="579.132" y2="50.2" gradientUnits="userSpaceOnUse">
<stop stop-color="white"/>
<stop offset="1" stop-color="#FFA500"/>
</linearGradient>
<linearGradient id="paint4_linear_117_21" x1="7" y1="50.2" x2="579.132" y2="50.2" gradientUnits="userSpaceOnUse">
<stop stop-color="white"/>
<stop offset="1" stop-color="#FFA500"/>
</linearGradient>
<linearGradient id="paint5_linear_117_21" x1="7" y1="50.2" x2="579.132" y2="50.2" gradientUnits="userSpaceOnUse">
<stop stop-color="white"/>
<stop offset="1" stop-color="#FFA500"/>
</linearGradient>
<linearGradient id="paint6_linear_117_21" x1="7" y1="50.2" x2="579.132" y2="50.2" gradientUnits="userSpaceOnUse">
<stop stop-color="white"/>
<stop offset="1" stop-color="#FFA500"/>
</linearGradient>
<linearGradient id="paint7_linear_117_21" x1="7" y1="50.2" x2="579.132" y2="50.2" gradientUnits="userSpaceOnUse">
<stop stop-color="white"/>
<stop offset="1" stop-color="#FFA500"/>
</linearGradient>
<linearGradient id="paint8_linear_117_21" x1="7" y1="50.2" x2="579.132" y2="50.2" gradientUnits="userSpaceOnUse">
<stop stop-color="white"/>
<stop offset="1" stop-color="#FFA500"/>
</linearGradient>
<linearGradient id="paint9_linear_117_21" x1="7" y1="50.2" x2="579.132" y2="50.2" gradientUnits="userSpaceOnUse">
<stop stop-color="white"/>
<stop offset="1" stop-color="#FFA500"/>
</linearGradient>
<linearGradient id="paint10_linear_117_21" x1="7" y1="50.2" x2="579.132" y2="50.2" gradientUnits="userSpaceOnUse">
<stop stop-color="white"/>
<stop offset="1" stop-color="#FFA500"/>
</linearGradient>
</defs>
</svg>
