<svg width="830" height="730" viewBox="0 0 830 730" fill="none" xmlns="http://www.w3.org/2000/svg">
<g filter="url(#filter0_d_104_12)">
<path fill-rule="evenodd" clip-rule="evenodd" d="M302.721 92.7878C292.48 96.5153 287.2 107.839 290.927 118.08L299.371 141.281L186.737 182.276L178.293 159.076C174.565 148.835 163.242 143.554 153 147.282C142.759 151.009 137.479 162.333 141.206 172.575L149.65 195.775L33.1781 238.167C7.22919 247.612 -6.15018 276.304 3.29445 302.253L144.264 689.562C153.708 715.511 182.4 728.89 208.349 719.446L493.213 615.764C503.384 612.062 508.628 600.816 504.926 590.645C501.224 580.474 489.978 575.229 479.807 578.931L247.14 663.615C221.191 673.06 192.499 659.681 183.054 633.732L69.3436 321.315C59.899 295.366 73.2783 266.674 99.2272 257.229L163.503 233.835L175.522 266.857C179.25 277.098 190.574 282.379 200.815 278.651C211.056 274.924 216.337 263.6 212.609 253.359L200.59 220.336L313.224 179.341L325.243 212.363C328.971 222.604 340.295 227.885 350.536 224.157C360.777 220.43 366.057 209.106 362.33 198.865L350.311 165.842L447.836 130.346L459.855 163.369C463.582 173.61 474.906 178.89 485.147 175.163C495.389 171.435 500.669 160.111 496.942 149.87L484.923 116.848L567.055 86.9541C593.004 77.5095 621.696 90.8888 631.141 116.838L675.123 237.678C678.901 248.057 690.377 253.409 700.757 249.631L713.992 244.814C724.371 241.036 729.723 229.559 725.945 219.18L668.11 60.2795C658.666 34.3306 629.974 20.9512 604.025 30.3959L471.07 78.7876L462.626 55.5875C458.898 45.3463 447.574 40.0658 437.333 43.7933C427.092 47.5209 421.811 58.8448 425.539 69.086L433.983 92.2861L336.458 127.782L328.014 104.582C324.286 94.3407 312.962 89.0603 302.721 92.7878ZM209.356 353.405C218.839 349.953 223.925 340.01 220.717 331.195C217.509 322.38 207.221 318.032 197.738 321.483C188.255 324.935 183.169 334.878 186.377 343.693C189.586 352.508 199.874 356.856 209.356 353.405ZM338.845 288.199C342.054 297.014 336.66 307.07 326.798 310.659C316.936 314.249 306.34 310.013 303.132 301.198C299.924 292.383 305.317 282.327 315.179 278.738C325.041 275.148 335.637 279.384 338.845 288.199ZM439.432 269.664C449.294 266.075 454.688 256.019 451.479 247.204C448.271 238.389 437.676 234.153 427.814 237.742C417.952 241.332 412.558 251.388 415.766 260.202C418.975 269.017 429.57 273.253 439.432 269.664ZM564.114 206.209C567.322 215.023 561.928 225.079 552.066 228.669C542.204 232.258 531.609 228.022 528.4 219.207C525.192 210.392 530.586 200.336 540.448 196.747C550.31 193.158 560.905 197.394 564.114 206.209ZM245.106 451.625C254.588 448.173 259.674 438.23 256.466 429.415C253.258 420.6 242.97 416.252 233.487 419.703C224.004 423.155 218.918 433.099 222.126 441.913C225.335 450.728 235.623 455.076 245.106 451.625ZM374.594 386.419C377.803 395.234 372.409 405.29 362.547 408.88C352.685 412.469 342.09 408.233 338.881 399.418C335.673 390.603 341.067 380.547 350.929 376.958C360.791 373.369 371.386 377.605 374.594 386.419ZM475.181 367.884C485.043 364.295 490.437 354.239 487.229 345.424C484.02 336.609 473.425 332.373 463.563 335.963C453.701 339.552 448.307 349.608 451.515 358.423C454.724 367.238 465.319 371.474 475.181 367.884ZM292.215 527.635C295.424 536.45 290.337 546.394 280.855 549.845C271.372 553.296 261.084 548.948 257.876 540.133C254.667 531.319 259.754 521.375 269.236 517.923C278.719 514.472 289.007 518.82 292.215 527.635ZM398.296 507.1C408.158 503.51 413.552 493.455 410.344 484.64C407.135 475.825 396.54 471.589 386.678 475.178C376.816 478.768 371.422 488.823 374.63 497.638C377.839 506.453 388.434 510.689 398.296 507.1ZM781.941 373.026C806.374 440.155 764.991 516.845 689.509 544.318C614.027 571.791 533.03 539.644 508.597 472.515C484.164 405.386 525.548 328.696 601.029 301.223C676.511 273.75 757.508 305.897 781.941 373.026ZM739.36 388.524C756.882 436.667 728.961 491.027 676.997 509.941C625.032 528.855 568.701 505.16 551.178 457.017C533.656 408.874 561.577 354.514 613.542 335.6C665.506 316.687 721.837 340.382 739.36 388.524ZM596.669 376.858C591.423 362.445 598.855 346.507 613.269 341.261C627.682 336.015 643.62 343.447 648.866 357.86L655.007 374.734L684.49 364.003C697.034 359.437 710.905 365.905 715.47 378.449C720.036 390.993 713.568 404.864 701.024 409.43L650.3 427.892C645.869 429.504 641.274 429.74 636.981 428.819C624.932 429.664 613.289 422.52 608.952 410.605L596.669 376.858Z" fill="#FFA500"/>
</g>
<defs>
<filter id="filter0_d_104_12" x="0.265503" y="0.0668221" width="828.996" height="729.708" filterUnits="userSpaceOnUse" color-interpolation-filters="sRGB">
<feFlood flood-opacity="0" result="BackgroundImageFix"/>
<feColorMatrix in="SourceAlpha" type="matrix" values="0 0 0 0 0 0 0 0 0 0 0 0 0 0 0 0 0 0 127 0" result="hardAlpha"/>
<feOffset dx="23" dy="-10"/>
<feGaussianBlur stdDeviation="8.65"/>
<feComposite in2="hardAlpha" operator="out"/>
<feColorMatrix type="matrix" values="0 0 0 0 0 0 0 0 0 0 0 0 0 0 0 0 0 0 0.25 0"/>
<feBlend mode="normal" in2="BackgroundImageFix" result="effect1_dropShadow_104_12"/>
<feBlend mode="normal" in="SourceGraphic" in2="effect1_dropShadow_104_12" result="shape"/>
</filter>
</defs>
</svg>
